<?xml version="1.0" encoding="UTF-8"?>
<svg xmlns="http://www.w3.org/2000/svg" xmlns:xlink="http://www.w3.org/1999/xlink" width="80px" height="80px" viewBox="0 0 80 49" version="1.1">
<g id="surface1">
<path style=" stroke:none;fill-rule:nonzero;fill:rgb(0%,0%,0%);fill-opacity:1;" d="M 2.410156 36.339844 L 2.53125 36.234375 C 2.765625 36.027344 3.011719 35.847656 3.261719 35.683594 C 3.78125 35.34375 4.335938 35.082031 4.921875 34.878906 C 5.417969 34.707031 5.945312 34.570312 6.5 34.460938 L 6.5 2.265625 C 2.347656 2.890625 2.375 7 2.398438 10.828125 C 2.433594 11.027344 2.40625 11.566406 2.40625 11.804688 Z M 59.675781 20.722656 C 57.765625 21.566406 56.21875 22.875 55.796875 25.957031 C 55.753906 26.300781 55.425781 26.535156 55.066406 26.496094 C 54.707031 26.453125 54.453125 26.140625 54.5 25.804688 C 54.988281 22.210938 56.859375 20.582031 59.171875 19.582031 C 60.335938 19.078125 61.605469 18.878906 62.863281 18.949219 C 66.679688 19.160156 70.601562 21.8125 70.78125 25.863281 C 70.792969 26.203125 70.511719 26.492188 70.148438 26.507812 C 69.789062 26.519531 69.484375 26.253906 69.472656 25.914062 C 69.363281 23.390625 67.847656 22.039062 65.859375 21.019531 C 65.523438 20.851562 65.667969 20.941406 65.367188 20.929688 C 64.226562 20.902344 64.613281 25.253906 64.613281 26.390625 C 64.613281 26.738281 64.320312 27.023438 63.960938 27.023438 C 63.601562 27.023438 63.3125 26.738281 63.3125 26.390625 C 63.3125 24.609375 63.003906 21.632812 63.941406 20.34375 C 63.5625 20.261719 63.175781 20.210938 62.789062 20.1875 C 62.300781 20.160156 61.8125 20.183594 61.335938 20.253906 C 62.222656 21.609375 61.921875 24.574219 61.921875 26.390625 C 61.921875 26.738281 61.640625 27.015625 61.289062 27.015625 C 60.9375 27.015625 60.65625 26.738281 60.65625 26.390625 C 60.65625 25.539062 60.988281 21.730469 60.195312 20.898438 C 60.007812 20.699219 59.886719 20.792969 59.675781 20.722656 Z M 70.222656 28.609375 C 70.453125 29.167969 70.5625 29.644531 70.703125 30.226562 C 70.726562 30.320312 70.738281 30.371094 70.742188 30.4375 C 70.75 30.503906 70.75 30.5625 70.746094 30.691406 C 70.71875 31.785156 70.421875 34 69.117188 34.363281 L 69.070312 34.53125 L 68.992188 34.839844 C 68.566406 36.386719 67.722656 37.746094 66.585938 38.691406 C 64.300781 40.59375 60.976562 40.511719 58.738281 38.570312 C 57.71875 37.6875 56.945312 36.46875 56.425781 35.089844 C 56.320312 34.808594 56.234375 34.53125 56.140625 34.25 L 56.125 34.207031 C 55.078125 34.019531 54.601562 32.363281 54.511719 31.484375 C 54.421875 30.601562 54.761719 29.597656 55.101562 28.789062 C 54.996094 28.730469 54.890625 28.675781 54.792969 28.613281 C 54.140625 28.210938 53.644531 27.71875 53.367188 27.140625 L 54.558594 26.628906 C 54.726562 26.980469 55.058594 27.300781 55.507812 27.578125 C 56.964844 28.472656 59.523438 28.90625 62.164062 28.914062 C 64.828125 28.921875 67.542969 28.492188 69.285156 27.679688 C 69.972656 27.359375 70.488281 26.984375 70.75 26.566406 L 71.875 27.203125 C 71.53125 27.75 70.957031 28.21875 70.222656 28.609375 Z M 56.414062 29.351562 L 56.402344 29.363281 C 55.554688 30.109375 55.515625 32.351562 56.410156 33.136719 C 56.476562 33.195312 56.535156 33.222656 56.582031 33.214844 C 57.152344 33.042969 57.269531 33.820312 57.375 34.171875 C 57.90625 35.832031 58.867188 37.042969 60.003906 37.78125 C 60.859375 38.335938 61.816406 38.628906 62.765625 38.640625 C 63.710938 38.652344 64.648438 38.390625 65.472656 37.839844 C 66.476562 37.171875 67.3125 36.078125 67.789062 34.542969 C 67.882812 34.171875 67.996094 33.277344 68.558594 33.390625 L 68.5625 33.390625 C 69.019531 33.453125 69.476562 31.597656 69.507812 31.234375 C 69.542969 30.863281 69.441406 30.613281 69.335938 30.34375 C 69.1875 29.984375 69.089844 29.625 68.9375 29.269531 C 68.925781 29.238281 68.917969 29.203125 68.917969 29.167969 C 65.554688 30.328125 59.96875 30.542969 56.414062 29.351562 Z M 80 48.734375 C 79.632812 44.019531 80.570312 44.269531 76.566406 42.785156 C 74.570312 42.046875 71.105469 41.113281 69.269531 39.988281 L 65.839844 48.734375 Z M 45.757812 48.734375 C 46.125 44.019531 45.1875 44.269531 49.191406 42.785156 C 51.1875 42.046875 54.652344 41.113281 56.488281 39.988281 L 59.917969 48.734375 Z M 63.839844 44.105469 L 64.316406 44.105469 C 64.75 44.105469 65.105469 43.757812 65.105469 43.332031 L 65.105469 42.070312 C 65.105469 41.644531 64.75 41.296875 64.316406 41.296875 L 61.472656 41.296875 C 61.039062 41.296875 60.6875 41.644531 60.6875 42.070312 L 60.6875 43.332031 C 60.6875 43.757812 61.039062 44.105469 61.472656 44.105469 L 61.957031 44.105469 L 61.027344 48.734375 L 64.734375 48.734375 Z M 45.867188 30.4375 L 42.671875 30.4375 C 42.042969 30.4375 41.535156 29.933594 41.535156 29.316406 C 41.535156 28.695312 42.042969 28.195312 42.671875 28.195312 L 45.867188 28.195312 L 45.867188 16.507812 L 33.707031 16.507812 L 33.707031 28.195312 L 38.039062 28.195312 C 38.667969 28.195312 39.175781 28.695312 39.175781 29.316406 C 39.175781 29.933594 38.667969 30.4375 38.039062 30.4375 L 33.707031 30.4375 L 33.707031 31.585938 C 33.707031 32.203125 33.199219 32.707031 32.570312 32.707031 C 31.945312 32.707031 31.4375 32.207031 31.4375 31.585938 L 31.4375 16.507812 L 16.445312 16.507812 L 16.445312 24.347656 L 23.785156 24.347656 C 24.414062 24.347656 24.921875 24.847656 24.921875 25.46875 L 24.921875 38.726562 L 31.394531 38.726562 L 31.394531 35.574219 C 31.394531 34.957031 31.90625 34.453125 32.53125 34.453125 C 33.15625 34.453125 33.667969 34.957031 33.667969 35.574219 L 33.667969 38.726562 L 34.015625 38.726562 C 34.640625 38.726562 35.148438 39.230469 35.148438 39.847656 C 35.148438 40.464844 34.640625 40.96875 34.015625 40.96875 L 15.308594 40.96875 C 14.679688 40.96875 14.171875 40.46875 14.171875 39.847656 L 14.171875 15.386719 C 14.171875 14.769531 14.679688 14.265625 15.308594 14.265625 L 47.003906 14.265625 C 47.632812 14.265625 48.140625 14.769531 48.140625 15.386719 L 48.140625 39.847656 C 48.140625 40.46875 47.632812 40.96875 47.003906 40.96875 L 38.058594 40.96875 C 37.433594 40.96875 36.921875 40.464844 36.921875 39.847656 C 36.921875 39.230469 37.433594 38.726562 38.058594 38.726562 L 45.867188 38.726562 Z M 16.445312 26.585938 L 16.445312 38.726562 L 22.648438 38.726562 L 22.648438 26.585938 Z M 8.699219 35.433594 C 8.683594 35.671875 8.589844 35.894531 8.433594 36.074219 C 8.261719 36.269531 8.027344 36.398438 7.765625 36.4375 L 7.742188 36.441406 C 7.09375 36.539062 6.496094 36.660156 5.949219 36.824219 C 5.40625 36.988281 4.914062 37.199219 4.472656 37.488281 C 4.054688 37.761719 3.671875 38.109375 3.328125 38.5625 C 2.980469 39.011719 2.667969 39.566406 2.386719 40.25 C 2.242188 44.050781 3.746094 46.171875 7.527344 46.804688 L 43.117188 46.804688 C 43.105469 47.207031 43.082031 47.699219 43.03125 48.382812 C 43.015625 48.496094 43.007812 48.613281 43.007812 48.734375 C 43.007812 48.820312 43.011719 48.902344 43.019531 48.988281 L 7.460938 48.988281 C 2.527344 48.988281 -0.0078125 44.265625 0.203125 40.003906 C 0.203125 30.589844 -0.253906 20.089844 0.203125 10.8125 C 0.1875 8.292969 0.171875 5.671875 1.0625 3.632812 C 1.980469 1.535156 3.816406 0.078125 7.488281 0.0117188 C 8.148438 -0.015625 8.707031 0.417969 8.707031 1.09375 L 8.707031 6.246094 L 61.796875 6.246094 C 62.667969 6.246094 63.390625 6.953125 63.390625 7.816406 L 63.390625 16.277344 C 63.265625 16.265625 63.140625 16.253906 63.015625 16.246094 C 62.398438 16.214844 61.785156 16.226562 61.179688 16.289062 L 61.179688 8.417969 L 8.707031 8.417969 Z M 8.699219 35.433594 "/>
</g>
</svg>
