<?xml version="1.0" encoding="UTF-8"?>
<svg xmlns="http://www.w3.org/2000/svg" xmlns:xlink="http://www.w3.org/1999/xlink" width="80px" height="80px" viewBox="0 0 80 80" version="1.1">
<g id="surface1">
<path style=" stroke:none;fill-rule:evenodd;fill:rgb(0%,0%,0%);fill-opacity:1;" d="M 38.835938 0.00390625 L 38.839844 0.00390625 C 41.140625 0.00390625 43.023438 1.875 43.023438 4.164062 L 43.023438 14.84375 L 34.648438 14.84375 L 34.648438 4.164062 C 34.648438 1.875 36.535156 0.00390625 38.835938 0.00390625 Z M 0.496094 5.398438 L 32.761719 5.398438 L 32.761719 15.027344 L 28.46875 15.027344 C 28.148438 15.027344 27.878906 15.296875 27.878906 15.617188 L 27.878906 66.523438 C 27.878906 66.839844 28.144531 67.109375 28.46875 67.109375 L 32.761719 67.109375 L 32.761719 74.601562 L 0.496094 74.601562 C 0.230469 74.601562 0 74.378906 0 74.109375 L 0 5.890625 C 0 5.617188 0.222656 5.398438 0.496094 5.398438 Z M 15.058594 13.203125 C 17.265625 13.203125 19.058594 14.980469 19.058594 17.179688 C 19.058594 18.0625 18.769531 18.875 18.28125 19.535156 L 12.6875 13.976562 C 13.375 13.472656 14.207031 13.199219 15.058594 13.203125 Z M 17.429688 20.382812 C 16.742188 20.882812 15.910156 21.15625 15.058594 21.15625 C 12.847656 21.15625 11.058594 19.375 11.058594 17.179688 C 11.058594 16.296875 11.347656 15.480469 11.835938 14.820312 Z M 15.058594 36.023438 C 17.265625 36.023438 19.058594 37.804688 19.058594 40 C 19.058594 40.882812 18.769531 41.695312 18.28125 42.355469 L 12.6875 36.796875 C 13.375 36.292969 14.207031 36.023438 15.058594 36.023438 Z M 17.429688 43.203125 C 16.742188 43.707031 15.910156 43.976562 15.058594 43.976562 C 12.847656 43.976562 11.058594 42.195312 11.058594 40 C 11.058594 39.117188 11.347656 38.304688 11.835938 37.644531 Z M 15.058594 58.84375 C 17.265625 58.84375 19.058594 60.625 19.058594 62.820312 C 19.058594 63.703125 18.769531 64.519531 18.28125 65.179688 L 12.6875 59.617188 C 13.375 59.113281 14.207031 58.84375 15.058594 58.84375 Z M 17.429688 66.023438 C 16.742188 66.527344 15.910156 66.800781 15.058594 66.796875 C 12.847656 66.796875 11.058594 65.019531 11.058594 62.820312 C 11.058594 61.941406 11.347656 61.125 11.835938 60.464844 Z M 79.503906 5.398438 L 48.558594 5.398438 L 48.558594 15.027344 L 44.882812 15.027344 L 44.882812 67.109375 L 48.558594 67.109375 L 48.558594 74.601562 L 79.503906 74.601562 C 79.773438 74.601562 80 74.378906 80 74.109375 L 80 5.890625 C 80 5.617188 79.765625 5.398438 79.503906 5.398438 Z M 62.441406 13.203125 C 64.652344 13.203125 66.441406 14.980469 66.441406 17.179688 C 66.441406 18.0625 66.152344 18.875 65.664062 19.535156 L 60.070312 13.976562 C 60.757812 13.472656 61.585938 13.199219 62.441406 13.203125 Z M 64.8125 20.382812 C 64.125 20.882812 63.292969 21.15625 62.441406 21.15625 C 60.230469 21.15625 58.441406 19.375 58.441406 17.179688 C 58.441406 16.296875 58.730469 15.480469 59.21875 14.820312 Z M 62.441406 36.023438 C 64.652344 36.023438 66.441406 37.804688 66.441406 40 C 66.441406 40.882812 66.152344 41.695312 65.664062 42.355469 L 60.070312 36.796875 C 60.757812 36.292969 61.585938 36.023438 62.441406 36.023438 Z M 64.8125 43.203125 C 64.125 43.707031 63.292969 43.976562 62.441406 43.976562 C 60.230469 43.976562 58.441406 42.195312 58.441406 40 C 58.441406 39.117188 58.730469 38.304688 59.21875 37.644531 Z M 62.441406 58.84375 C 64.652344 58.84375 66.441406 60.625 66.441406 62.820312 C 66.441406 63.703125 66.152344 64.519531 65.664062 65.179688 L 60.070312 59.617188 C 60.757812 59.113281 61.585938 58.84375 62.441406 58.84375 Z M 64.8125 66.023438 C 64.125 66.527344 63.292969 66.800781 62.441406 66.796875 C 60.230469 66.796875 58.441406 65.019531 58.441406 62.820312 C 58.441406 61.941406 58.730469 61.125 59.21875 60.464844 Z M 43.023438 17.15625 L 43.023438 38.84375 L 34.648438 38.84375 L 34.648438 17.15625 Z M 43.023438 41.15625 L 43.023438 63.984375 L 34.648438 63.984375 L 34.648438 41.15625 Z M 43.023438 66.296875 L 43.023438 75.835938 C 43.023438 78.125 41.140625 79.996094 38.839844 79.996094 L 38.835938 79.996094 C 36.535156 79.996094 34.648438 78.125 34.648438 75.835938 L 34.648438 66.296875 Z M 43.023438 66.296875 "/>
</g>
</svg>
