<?xml version="1.0" encoding="UTF-8"?>
<svg xmlns="http://www.w3.org/2000/svg" xmlns:xlink="http://www.w3.org/1999/xlink" width="80px" height="80px" viewBox="0 0 80 63" version="1.1">
<g id="surface1">
<path style=" stroke:none;fill-rule:evenodd;fill:rgb(0%,0%,0%);fill-opacity:1;" d="M 19.421875 54.71875 L 19.421875 30.980469 L 30.234375 30.980469 C 34.792969 31.789062 39.402344 34.246094 43.984375 37.097656 L 52.382812 37.097656 C 56.183594 37.328125 58.171875 41.132812 54.480469 43.636719 C 51.535156 45.773438 47.648438 45.648438 43.671875 45.296875 C 40.925781 45.160156 40.800781 48.816406 43.671875 48.824219 C 44.660156 48.898438 45.742188 48.667969 46.691406 48.667969 C 51.660156 48.667969 55.753906 47.730469 58.261719 43.84375 L 59.519531 40.941406 L 72.011719 34.820312 C 78.261719 32.785156 82.683594 39.273438 78.125 43.738281 C 69.40625 50.03125 60.078125 55.453125 50.28125 59.929688 C 43.390625 64.074219 36.496094 63.929688 29.601562 59.929688 Z M 37.570312 4.25 L 47.214844 4.25 L 47.214844 1.511719 C 47.214844 0.6875 47.890625 0.0195312 48.722656 0.0195312 L 59.792969 0.0195312 C 60.625 0.0195312 61.300781 0.6875 61.300781 1.511719 L 61.300781 4.25 L 70.945312 4.25 C 71.511719 4.257812 72.054688 4.488281 72.449219 4.890625 C 72.855469 5.285156 73.089844 5.820312 73.097656 6.386719 L 73.097656 11.601562 C 70.757812 13.195312 68.273438 14.574219 65.683594 15.726562 C 63.023438 16.914062 60.246094 17.820312 57.394531 18.4375 L 57.394531 16.46875 C 57.394531 15.59375 56.679688 14.886719 55.792969 14.886719 L 52.734375 14.886719 C 51.851562 14.886719 51.132812 15.59375 51.132812 16.46875 L 51.132812 18.398438 C 48.351562 17.785156 45.644531 16.890625 43.046875 15.734375 C 40.382812 14.546875 37.835938 13.121094 35.4375 11.476562 L 35.4375 6.328125 C 35.441406 5.164062 36.394531 4.21875 37.570312 4.214844 Z M 58.59375 2.0625 L 49.875 2.0625 C 49.828125 2.058594 49.78125 2.078125 49.746094 2.113281 C 49.710938 2.148438 49.6875 2.195312 49.6875 2.246094 L 49.6875 4.175781 L 58.800781 4.175781 L 58.800781 2.246094 C 58.800781 2.195312 58.78125 2.148438 58.742188 2.113281 C 58.703125 2.074219 58.648438 2.054688 58.59375 2.0625 Z M 55.734375 16.292969 L 52.734375 16.292969 C 52.6875 16.292969 52.644531 16.3125 52.609375 16.347656 C 52.574219 16.375 52.554688 16.421875 52.558594 16.46875 L 52.558594 22.710938 C 52.558594 22.753906 52.578125 22.800781 52.609375 22.832031 C 52.644531 22.863281 52.6875 22.878906 52.734375 22.878906 L 55.722656 22.878906 C 55.769531 22.878906 55.8125 22.863281 55.847656 22.832031 C 55.878906 22.800781 55.898438 22.757812 55.898438 22.710938 L 55.898438 16.46875 C 55.898438 16.421875 55.878906 16.378906 55.847656 16.347656 C 55.816406 16.308594 55.769531 16.289062 55.722656 16.292969 Z M 57.335938 20.695312 C 57.417969 20.703125 57.5 20.703125 57.578125 20.695312 C 60.714844 20.042969 63.769531 19.058594 66.691406 17.761719 C 68.894531 16.78125 71.019531 15.644531 73.054688 14.359375 L 73.054688 28.335938 C 73.046875 28.894531 72.8125 29.433594 72.402344 29.820312 C 72.007812 30.226562 71.464844 30.457031 70.898438 30.464844 L 37.570312 30.464844 C 37.003906 30.460938 36.460938 30.226562 36.066406 29.820312 C 35.660156 29.429688 35.425781 28.894531 35.417969 28.335938 L 35.417969 14.175781 C 37.511719 15.519531 39.707031 16.699219 41.984375 17.710938 C 44.910156 19.007812 47.964844 19.988281 51.101562 20.644531 L 51.140625 20.644531 L 51.140625 22.679688 C 51.132812 23.109375 51.304688 23.527344 51.613281 23.828125 C 51.914062 24.128906 52.320312 24.296875 52.746094 24.292969 L 55.734375 24.292969 C 56.160156 24.296875 56.570312 24.128906 56.867188 23.828125 C 57.167969 23.535156 57.335938 23.132812 57.335938 22.714844 Z M 1.414062 28.695312 L 14.753906 28.695312 C 15.535156 28.699219 16.164062 29.324219 16.164062 30.097656 L 16.164062 55.726562 C 16.160156 56.496094 15.53125 57.121094 14.753906 57.125 L 1.414062 57.125 C 0.632812 57.121094 0.00390625 56.496094 0 55.726562 L 0 30.097656 C 0 29.324219 0.632812 28.699219 1.414062 28.695312 Z M 8.085938 33.011719 C 9.246094 33.011719 10.1875 33.941406 10.1875 35.089844 C 10.1875 36.238281 9.246094 37.167969 8.085938 37.167969 C 6.925781 37.167969 5.984375 36.238281 5.984375 35.089844 C 5.984375 33.941406 6.925781 33.011719 8.085938 33.011719 Z M 8.085938 33.011719 "/>
</g>
</svg>
