<?xml version="1.0" encoding="UTF-8"?>
<svg xmlns="http://www.w3.org/2000/svg" xmlns:xlink="http://www.w3.org/1999/xlink" width="80px" height="80px" viewBox="0 0 80 67" version="1.1">
<g id="surface1">
<path style=" stroke:none;fill-rule:nonzero;fill:rgb(0%,0%,0%);fill-opacity:1;" d="M 25.9375 45.089844 C 23.792969 45.527344 21.578125 45.578125 19.460938 43.394531 C 17.984375 41.785156 17.238281 39.644531 17.394531 37.472656 C 22.894531 43.808594 29.589844 35.980469 21.476562 31.917969 C 25.394531 30.070312 29.097656 31.804688 31.0625 35.382812 C 31.992188 37.078125 32.550781 37.949219 33.257812 38.589844 C 33.386719 38.703125 33.523438 38.804688 33.664062 38.898438 C 33.957031 38.046875 34.5625 37.335938 35.355469 36.902344 C 35.8125 36.675781 36.316406 36.554688 36.824219 36.558594 C 38.265625 36.558594 40.066406 37.402344 40.351562 38.855469 C 40.417969 38.84375 40.484375 38.84375 40.550781 38.855469 L 41.59375 38.855469 C 41.648438 38.847656 41.707031 38.847656 41.761719 38.855469 C 42.898438 38.957031 43.824219 39.796875 44.023438 40.90625 C 44.125 40.859375 44.234375 40.835938 44.347656 40.835938 L 45.382812 40.835938 C 45.441406 40.828125 45.5 40.828125 45.558594 40.835938 C 46.777344 40.960938 47.746094 41.917969 47.871094 43.125 L 49.03125 43.125 C 49.085938 43.121094 49.140625 43.121094 49.199219 43.125 C 50.90625 43.390625 51.585938 44.507812 51.847656 45.847656 C 54.980469 45.367188 58.429688 43.484375 61.769531 46.886719 C 63.242188 48.496094 63.988281 50.632812 63.828125 52.800781 C 58.3125 46.476562 51.605469 54.296875 59.730469 58.382812 C 56.347656 59.96875 53.140625 58.910156 51.058594 56.296875 C 50.773438 57.0625 50.421875 57.800781 50 58.5 L 49.851562 58.738281 C 50.335938 58.875 50.671875 59.3125 50.675781 59.8125 L 50.675781 65.902344 C 50.671875 66.519531 50.167969 67.015625 49.546875 67.019531 L 33.238281 67.019531 C 32.617188 67.019531 32.109375 66.519531 32.109375 65.902344 L 32.109375 59.796875 C 32.109375 59.179688 32.617188 58.679688 33.238281 58.679688 L 27.582031 49.523438 C 27.136719 48.925781 26.757812 48.28125 26.457031 47.597656 C 26.1875 47.027344 26.019531 46.417969 25.964844 45.789062 C 25.949219 45.554688 25.949219 45.324219 25.964844 45.089844 Z M 72.9375 65.511719 C 72.9375 66.164062 72.402344 66.691406 71.746094 66.691406 L 57.015625 66.691406 L 57.015625 63.335938 L 69.542969 63.335938 L 69.542969 33.5625 C 69.535156 33.484375 69.535156 33.40625 69.542969 33.328125 L 40.117188 11.921875 L 10.09375 33.363281 C 10.121094 33.460938 10.132812 33.5625 10.132812 33.664062 L 10.132812 63.335938 L 25.167969 63.335938 L 25.167969 66.722656 L 7.929688 66.722656 C 7.617188 66.722656 7.3125 66.597656 7.089844 66.378906 C 6.867188 66.15625 6.742188 65.855469 6.746094 65.542969 L 6.746094 34.875 C 5.601562 35.351562 4.324219 35.410156 3.136719 35.042969 C 2.351562 34.785156 1.660156 34.304688 1.148438 33.664062 C 0.636719 33.023438 0.320312 32.25 0.234375 31.4375 C 0.109375 29.929688 0.597656 28.433594 1.597656 27.285156 C 1.652344 27.214844 1.71875 27.152344 1.789062 27.101562 L 39.101562 0.308594 C 39.527344 -0.078125 40.175781 -0.101562 40.636719 0.25 L 78.015625 26.992188 C 78.066406 27.03125 78.113281 27.074219 78.15625 27.121094 C 79.476562 28.382812 80.046875 30.230469 79.671875 32.007812 C 79.324219 33.492188 78.242188 34.699219 76.796875 35.214844 C 75.53125 35.652344 74.140625 35.5625 72.945312 34.964844 L 72.945312 65.53125 Z M 33.296875 47.675781 C 33.253906 47.65625 33.214844 47.632812 33.179688 47.605469 L 31.714844 46.429688 C 31.066406 45.898438 30.289062 45.269531 29.773438 44.832031 C 29.433594 44.550781 29.03125 44.355469 28.601562 44.257812 C 28.386719 44.195312 28.164062 44.195312 27.953125 44.257812 C 27.792969 44.328125 27.664062 44.457031 27.597656 44.617188 C 27.46875 44.953125 27.421875 45.316406 27.464844 45.675781 C 27.511719 46.117188 27.636719 46.554688 27.828125 46.957031 C 28.085938 47.523438 28.40625 48.0625 28.78125 48.5625 C 28.800781 48.582031 28.816406 48.605469 28.832031 48.632812 L 34.53125 57.101562 C 34.601562 57.203125 34.648438 57.320312 34.664062 57.441406 C 34.710938 57.851562 34.789062 58.257812 34.894531 58.660156 L 47.570312 58.660156 C 47.765625 58.410156 47.941406 58.144531 48.097656 57.871094 L 48.097656 57.832031 L 48.691406 56.851562 C 49.703125 55.367188 50.324219 53.660156 50.5 51.878906 L 50.433594 49.3125 C 50.433594 49.3125 50.433594 49.242188 50.433594 49.203125 C 50.433594 49.164062 50.433594 48.933594 50.433594 48.605469 C 50.433594 46.917969 50.488281 44.832031 48.925781 44.570312 L 47.949219 44.570312 C 47.949219 45.050781 47.910156 45.53125 47.882812 46 C 47.855469 46.46875 47.832031 46.824219 47.832031 47.207031 C 47.832031 47.621094 47.492188 47.957031 47.074219 47.957031 C 46.65625 47.957031 46.316406 47.621094 46.316406 47.207031 C 46.316406 46.824219 46.316406 46.375 46.375 45.925781 C 46.476562 44.339844 46.59375 42.515625 45.3125 42.292969 L 44.320312 42.292969 C 44.265625 42.300781 44.207031 42.300781 44.152344 42.292969 C 44.152344 42.871094 44.152344 43.46875 44.085938 44.039062 C 44.085938 44.453125 44.035156 44.859375 44.035156 45.242188 C 44.035156 45.660156 43.695312 45.996094 43.277344 45.996094 C 42.859375 45.996094 42.519531 45.660156 42.519531 45.242188 C 42.519531 44.859375 42.519531 44.410156 42.585938 43.960938 C 42.679688 42.375 42.796875 40.554688 41.515625 40.328125 L 40.523438 40.328125 C 40.457031 40.335938 40.390625 40.335938 40.324219 40.328125 L 40.324219 43.179688 C 40.324219 43.59375 39.984375 43.929688 39.566406 43.929688 C 39.148438 43.929688 38.808594 43.59375 38.808594 43.179688 L 38.808594 39.507812 C 38.808594 38.476562 37.773438 38.027344 36.800781 38.027344 C 36.527344 38.027344 36.261719 38.089844 36.015625 38.210938 C 35.367188 38.550781 34.804688 39.496094 34.804688 40.855469 L 34.804688 49.0625 C 34.804688 49.476562 34.464844 49.8125 34.046875 49.8125 C 33.628906 49.8125 33.289062 49.476562 33.289062 49.0625 L 33.289062 47.675781 Z M 33.296875 45.011719 L 32.589844 44.730469 C 32.265625 44.597656 31.9375 44.484375 31.597656 44.390625 L 32.679688 45.269531 L 33.328125 45.769531 L 33.328125 45.011719 Z M 33.296875 45.011719 "/>
</g>
</svg>
