<?xml version="1.0" encoding="UTF-8"?>
<svg xmlns="http://www.w3.org/2000/svg" xmlns:xlink="http://www.w3.org/1999/xlink" width="80px" height="80px" viewBox="0 0 80 80" version="1.1">
<g id="surface1">
<path style=" stroke:none;fill-rule:nonzero;fill:rgb(0%,0%,0%);fill-opacity:1;" d="M 64.09375 62.441406 L 69.988281 56.546875 L 75.875 62.441406 C 79.132812 65.695312 79.132812 70.972656 75.878906 74.226562 C 72.625 77.480469 67.347656 77.480469 64.09375 74.226562 C 60.835938 70.972656 60.839844 65.695312 64.09375 62.441406 Z M 29.59375 3.601562 L 67.308594 41.308594 C 67.933594 41.933594 68.285156 42.785156 68.285156 43.667969 C 68.285156 44.554688 67.933594 45.402344 67.308594 46.027344 L 39.023438 74.308594 C 37.722656 75.609375 35.613281 75.609375 34.308594 74.308594 L 6.027344 46.027344 C 5.402344 45.402344 5.050781 44.554688 5.050781 43.667969 C 5.050781 42.785156 5.402344 41.933594 6.027344 41.308594 L 31.953125 15.382812 L 24.878906 8.3125 L 29.601562 3.601562 Z M 36.667969 20.101562 L 13.097656 43.667969 L 60.234375 43.667969 Z M 36.667969 20.101562 "/>
</g>
</svg>
