<?xml version="1.0" encoding="UTF-8"?>
<svg xmlns="http://www.w3.org/2000/svg" xmlns:xlink="http://www.w3.org/1999/xlink" width="80px" height="80px" viewBox="0 0 80 78" version="1.1">
<g id="surface1">
<path style=" stroke:none;fill-rule:evenodd;fill:rgb(0%,0%,0%);fill-opacity:1;" d="M 72.210938 0.824219 L 45.578125 27.773438 L 52.519531 34.503906 L 79.347656 7.492188 C 81.714844 2.40625 76.730469 -1.851562 72.210938 0.824219 Z M 35.1875 30.425781 C 35.449219 30.222656 35.714844 30.046875 35.980469 29.898438 L 36.078125 29.84375 C 37.605469 29.011719 39.207031 29.039062 40.882812 30.191406 L 45.546875 34.726562 L 45.617188 34.796875 L 49.910156 38.972656 C 51.6875 40.777344 52.082031 42.792969 51.101562 45.023438 L 38.515625 78.007812 C 15.664062 73.4375 -0.179688 57.15625 0.0429688 32.320312 C 12.546875 35.972656 24.59375 37.171875 35.1875 30.425781 Z M 35.1875 30.425781 "/>
</g>
</svg>
