<?xml version="1.0" encoding="UTF-8"?>
<svg xmlns="http://www.w3.org/2000/svg" xmlns:xlink="http://www.w3.org/1999/xlink" width="80px" height="80px" viewBox="0 0 80 57" version="1.1">
<g id="surface1">
<path style=" stroke:none;fill-rule:evenodd;fill:rgb(0%,0%,0%);fill-opacity:1;" d="M 19.984375 37.234375 C 18.769531 36.148438 17.84375 35.144531 17.628906 32.785156 L 17.472656 32.792969 C 17.109375 32.785156 16.761719 32.703125 16.4375 32.519531 C 15.914062 32.222656 15.546875 31.71875 15.296875 31.144531 C 14.769531 29.949219 14.351562 26.796875 15.675781 25.894531 L 15.429688 25.730469 L 15.402344 25.382812 C 15.351562 24.746094 15.335938 23.980469 15.324219 23.175781 C 15.277344 20.210938 15.214844 17.972656 12.8125 17.25 L 11.78125 16.941406 L 12.460938 16.109375 C 14.402344 13.730469 16.429688 11.648438 18.480469 10.050781 C 22.601562 6.832031 27.675781 4.925781 32.226562 8.574219 C 32.855469 9.074219 33.460938 9.675781 34.046875 10.382812 C 41.054688 11.058594 44.414062 20.929688 38.898438 26.214844 C 39.214844 26.230469 39.511719 26.300781 39.773438 26.4375 C 40.777344 26.96875 40.808594 28.125 40.546875 29.09375 C 40.285156 29.902344 39.953125 30.84375 39.644531 31.628906 C 39.265625 32.695312 38.710938 32.894531 37.640625 32.777344 C 37.582031 35.410156 36.65625 36.394531 35.003906 37.941406 C 34.664062 38.824219 34.625 39.609375 35.632812 40.382812 C 43.964844 46.734375 55.824219 43.25 55.824219 57 L 0 57 C 0 43.328125 11.1875 46.921875 19.738281 40.441406 C 20.933594 39.535156 21.222656 38.34375 19.984375 37.234375 Z M 49.222656 3.585938 L 46.832031 3.644531 C 45.863281 3.664062 45.058594 2.90625 45.039062 1.949219 C 45.015625 0.988281 45.78125 0.191406 46.75 0.171875 L 53.390625 0.00390625 L 53.421875 0 L 53.519531 0 L 53.558594 0.00390625 L 53.601562 0.00390625 L 53.609375 0.0078125 L 53.648438 0.0117188 L 53.652344 0.0117188 L 53.691406 0.015625 L 53.695312 0.015625 L 53.734375 0.0195312 L 53.742188 0.0234375 L 53.777344 0.0273438 L 53.78125 0.03125 L 53.820312 0.0351562 L 53.828125 0.0390625 L 53.863281 0.046875 L 53.867188 0.046875 L 53.90625 0.0546875 L 53.910156 0.0585938 L 53.945312 0.0664062 L 53.953125 0.0703125 L 53.988281 0.078125 L 53.992188 0.0820312 L 54.027344 0.09375 L 54.035156 0.09375 L 54.070312 0.105469 L 54.074219 0.109375 L 54.109375 0.121094 L 54.113281 0.125 L 54.148438 0.136719 L 54.152344 0.140625 L 54.1875 0.152344 L 54.195312 0.160156 L 54.226562 0.171875 L 54.230469 0.175781 L 54.300781 0.210938 L 54.304688 0.214844 L 54.34375 0.234375 L 54.375 0.253906 L 54.378906 0.257812 L 54.410156 0.277344 L 54.414062 0.28125 L 54.445312 0.296875 L 54.449219 0.304688 L 54.480469 0.324219 L 54.484375 0.324219 L 54.515625 0.347656 L 54.519531 0.351562 L 54.546875 0.371094 L 54.550781 0.378906 L 54.578125 0.398438 L 54.585938 0.402344 L 54.613281 0.425781 L 54.617188 0.429688 L 54.644531 0.453125 L 54.671875 0.480469 L 54.679688 0.484375 L 54.703125 0.511719 L 54.765625 0.574219 L 54.789062 0.601562 L 54.796875 0.609375 L 54.816406 0.632812 L 54.820312 0.640625 L 54.84375 0.667969 L 54.847656 0.671875 L 54.871094 0.699219 L 54.875 0.703125 L 54.894531 0.734375 L 54.898438 0.738281 L 54.917969 0.765625 L 54.921875 0.773438 L 54.941406 0.804688 L 54.945312 0.808594 L 54.964844 0.839844 L 54.96875 0.84375 L 54.984375 0.875 L 54.988281 0.878906 L 55.007812 0.910156 L 55.007812 0.917969 L 55.027344 0.949219 L 55.03125 0.953125 L 55.042969 0.984375 L 55.0625 1.023438 L 55.066406 1.027344 L 55.078125 1.0625 L 55.082031 1.070312 L 55.097656 1.105469 L 55.097656 1.109375 L 55.113281 1.140625 L 55.113281 1.148438 L 55.125 1.183594 L 55.125 1.1875 L 55.140625 1.222656 L 55.140625 1.230469 L 55.152344 1.265625 L 55.152344 1.269531 L 55.164062 1.304688 L 55.164062 1.3125 L 55.171875 1.347656 L 55.175781 1.355469 L 55.179688 1.390625 L 55.183594 1.394531 L 55.1875 1.433594 L 55.191406 1.441406 L 55.195312 1.476562 L 55.199219 1.484375 L 55.203125 1.519531 L 55.203125 1.527344 L 55.207031 1.5625 L 55.207031 1.570312 L 55.210938 1.605469 L 55.210938 1.613281 L 55.214844 1.652344 L 55.214844 1.742188 L 55.355469 8.542969 C 55.375 9.5 54.605469 10.296875 53.640625 10.316406 C 52.671875 10.332031 51.871094 9.570312 51.851562 8.609375 L 51.796875 5.960938 L 47.226562 10.492188 C 46.542969 11.171875 45.429688 11.171875 44.742188 10.492188 C 44.054688 9.8125 44.054688 8.707031 44.742188 8.027344 Z M 73.726562 11.941406 L 69.128906 12.203125 C 68.160156 12.253906 67.332031 11.523438 67.277344 10.5625 C 67.226562 9.605469 67.96875 8.78125 68.933594 8.730469 L 77.648438 8.234375 L 77.6875 8.230469 L 77.875 8.230469 L 77.910156 8.234375 L 77.917969 8.234375 L 77.953125 8.238281 L 77.960938 8.238281 L 78 8.242188 L 78.007812 8.242188 L 78.042969 8.25 L 78.050781 8.25 L 78.085938 8.253906 L 78.09375 8.257812 L 78.125 8.265625 L 78.132812 8.265625 L 78.171875 8.273438 L 78.175781 8.273438 L 78.210938 8.28125 L 78.21875 8.285156 L 78.253906 8.292969 L 78.261719 8.296875 L 78.296875 8.304688 L 78.304688 8.308594 L 78.335938 8.320312 L 78.34375 8.320312 L 78.375 8.332031 L 78.382812 8.332031 L 78.414062 8.347656 L 78.421875 8.347656 L 78.457031 8.363281 L 78.460938 8.367188 L 78.496094 8.378906 L 78.5 8.382812 L 78.535156 8.398438 L 78.539062 8.402344 L 78.570312 8.414062 L 78.648438 8.453125 L 78.652344 8.460938 L 78.683594 8.476562 L 78.6875 8.480469 L 78.71875 8.5 L 78.726562 8.503906 L 78.753906 8.519531 L 78.761719 8.523438 L 78.789062 8.542969 L 78.796875 8.550781 L 78.824219 8.570312 L 78.828125 8.574219 L 78.859375 8.59375 L 78.863281 8.597656 L 78.890625 8.617188 L 78.894531 8.625 L 78.921875 8.648438 L 78.929688 8.652344 L 78.953125 8.671875 L 78.960938 8.679688 L 78.984375 8.699219 L 79.015625 8.730469 L 79.019531 8.738281 L 79.046875 8.761719 L 79.074219 8.789062 L 79.078125 8.796875 L 79.101562 8.824219 L 79.105469 8.828125 L 79.128906 8.855469 L 79.132812 8.859375 L 79.15625 8.886719 L 79.160156 8.890625 L 79.183594 8.917969 L 79.1875 8.925781 L 79.207031 8.953125 L 79.210938 8.957031 L 79.234375 8.984375 L 79.234375 8.992188 L 79.257812 9.023438 L 79.257812 9.027344 L 79.277344 9.058594 L 79.28125 9.0625 L 79.300781 9.09375 L 79.304688 9.101562 L 79.320312 9.128906 L 79.34375 9.175781 L 79.359375 9.203125 L 79.363281 9.210938 L 79.378906 9.246094 L 79.382812 9.25 L 79.398438 9.28125 L 79.398438 9.289062 L 79.414062 9.320312 L 79.414062 9.328125 L 79.441406 9.402344 L 79.445312 9.410156 L 79.457031 9.441406 L 79.457031 9.449219 L 79.46875 9.484375 L 79.46875 9.492188 L 79.480469 9.523438 L 79.484375 9.53125 L 79.492188 9.570312 L 79.492188 9.574219 L 79.5 9.609375 L 79.503906 9.617188 L 79.507812 9.652344 L 79.511719 9.660156 L 79.515625 9.695312 L 79.515625 9.703125 L 79.523438 9.738281 L 79.523438 9.746094 L 79.527344 9.785156 L 79.53125 9.792969 L 79.53125 9.835938 L 79.535156 9.875 L 79.535156 9.882812 L 79.539062 9.917969 L 79.996094 18.679688 C 80.046875 19.640625 79.300781 20.457031 78.335938 20.507812 C 77.367188 20.554688 76.542969 19.816406 76.492188 18.855469 L 76.257812 14.363281 L 68.6875 21.863281 C 68.003906 22.546875 66.890625 22.546875 66.203125 21.863281 C 65.515625 21.183594 65.515625 20.082031 66.203125 19.402344 Z M 57.871094 22.09375 L 60.5625 22.230469 C 61.820312 22.300781 62.796875 23.371094 62.730469 24.621094 L 62.601562 27.089844 C 63.804688 27.515625 64.925781 28.09375 65.953125 28.804688 L 67.902344 27.0625 C 68.839844 26.230469 70.292969 26.304688 71.136719 27.230469 L 72.941406 29.21875 C 73.785156 30.144531 73.707031 31.589844 72.773438 32.425781 L 70.679688 34.292969 C 71.195312 35.355469 71.578125 36.476562 71.8125 37.628906 L 74.6875 37.777344 C 75.945312 37.84375 76.921875 38.917969 76.855469 40.164062 L 76.714844 42.832031 C 76.648438 44.082031 75.5625 45.046875 74.308594 44.980469 L 71.410156 44.832031 C 71.046875 45.945312 70.546875 47.007812 69.921875 47.996094 L 71.839844 50.109375 C 72.683594 51.039062 72.609375 52.480469 71.671875 53.316406 L 69.667969 55.105469 C 68.730469 55.941406 67.277344 55.863281 66.433594 54.9375 L 64.621094 52.941406 C 63.53125 53.53125 62.371094 53.972656 61.167969 54.265625 L 61.140625 54.785156 C 60.941406 51.898438 60.34375 49.632812 59.4375 47.8125 C 62.820312 47.273438 65.480469 44.453125 65.667969 40.921875 C 65.882812 36.863281 62.734375 33.394531 58.632812 33.183594 C 54.535156 32.972656 51.039062 36.09375 50.828125 40.15625 C 50.8125 40.410156 50.8125 40.664062 50.824219 40.914062 C 49.429688 40.386719 47.949219 39.925781 46.4375 39.453125 C 44.917969 38.980469 43.339844 38.484375 41.878906 37.847656 C 42.054688 37.5 42.210938 37.140625 42.34375 36.765625 C 42.601562 36.570312 42.84375 36.367188 43.066406 36.140625 L 44.105469 36.195312 C 44.53125 34.847656 45.160156 33.574219 45.96875 32.410156 L 44.65625 30.964844 C 43.8125 30.039062 43.886719 28.59375 44.824219 27.761719 L 46.828125 25.972656 C 47.761719 25.136719 49.21875 25.210938 50.0625 26.140625 L 51.480469 27.703125 C 52.6875 27.117188 53.984375 26.695312 55.34375 26.464844 L 55.460938 24.242188 C 55.53125 22.996094 56.613281 22.027344 57.871094 22.09375 Z M 57.871094 22.09375 "/>
</g>
</svg>
