<?xml version="1.0" encoding="UTF-8"?>
<svg xmlns="http://www.w3.org/2000/svg" xmlns:xlink="http://www.w3.org/1999/xlink" width="80px" height="80px" viewBox="0 0 80 79" version="1.1">
<g id="surface1">
<path style=" stroke:none;fill-rule:nonzero;fill:rgb(0%,0%,0%);fill-opacity:1;" d="M 72.554688 28.453125 C 72.039062 27.222656 72.625 25.800781 73.867188 25.289062 C 75.105469 24.777344 76.527344 25.363281 77.042969 26.597656 C 78.003906 28.890625 78.746094 31.28125 79.242188 33.757812 C 79.730469 36.171875 79.984375 38.675781 79.984375 41.234375 C 79.984375 50.925781 76.339844 59.765625 70.339844 66.484375 C 64.277344 73.273438 55.804688 77.886719 46.253906 78.992188 C 44.917969 79.140625 43.714844 78.191406 43.558594 76.863281 C 43.410156 75.535156 44.367188 74.335938 45.699219 74.179688 C 54.023438 73.214844 61.414062 69.191406 66.710938 63.265625 C 71.941406 57.410156 75.117188 49.691406 75.117188 41.234375 C 75.117188 38.996094 74.894531 36.816406 74.472656 34.703125 C 74.03125 32.519531 73.386719 30.433594 72.554688 28.453125 Z M 55.523438 32.105469 C 55.511719 32.183594 55.480469 32.261719 55.441406 32.332031 C 55.386719 32.507812 55.347656 32.707031 55.335938 32.933594 C 55.335938 32.953125 55.335938 32.980469 55.335938 33 L 54.328125 47.703125 C 54.484375 48.175781 54.691406 48.539062 54.953125 48.773438 C 55.191406 48.992188 55.5 49.109375 55.882812 49.125 C 55.910156 49.125 55.941406 49.125 55.96875 49.125 L 60.203125 49.414062 C 60.210938 49.414062 60.222656 49.414062 60.234375 49.414062 C 60.894531 49.492188 61.382812 49.351562 61.726562 49.007812 C 62.117188 48.617188 62.371094 47.964844 62.507812 47.074219 L 62.507812 47.0625 L 64.707031 33.886719 C 64.707031 33.867188 64.707031 33.839844 64.710938 33.820312 C 64.855469 33.078125 64.71875 32.570312 64.367188 32.261719 C 63.957031 31.90625 63.261719 31.714844 62.335938 31.652344 C 62.316406 31.652344 62.296875 31.652344 62.273438 31.652344 L 57.503906 31.328125 L 57.503906 31.320312 C 56.773438 31.269531 56.226562 31.378906 55.882812 31.652344 C 55.726562 31.769531 55.617188 31.917969 55.523438 32.105469 Z M 49.742188 48.054688 C 49.644531 47.949219 49.585938 47.820312 49.558594 47.679688 L 43.589844 35.019531 C 42.921875 33.710938 42.246094 33.632812 41.554688 33.976562 C 41.066406 34.222656 40.546875 34.636719 40.019531 35.054688 C 39.699219 35.304688 39.386719 35.550781 39.121094 35.746094 L 37.886719 36.628906 L 37.878906 36.632812 C 36.980469 37.253906 36 37.558594 35.082031 37.574219 C 34.476562 37.585938 33.902344 37.46875 33.390625 37.230469 C 32.863281 36.988281 32.40625 36.632812 32.082031 36.160156 C 31.730469 35.65625 31.515625 35.027344 31.503906 34.308594 C 31.503906 34.308594 31.664062 33.859375 31.699219 33.828125 L 35.71875 29.683594 C 34.9375 29.617188 34.234375 29.675781 33.570312 29.832031 C 32.554688 30.070312 31.59375 30.542969 30.539062 31.164062 C 30.414062 31.25 30.265625 31.289062 30.109375 31.28125 L 25.828125 30.992188 L 25.273438 39.042969 L 24.9375 44.191406 L 27.429688 44.363281 C 27.667969 44.375 27.890625 44.515625 27.996094 44.742188 L 30.722656 50.328125 C 31.117188 51.144531 31.46875 51.84375 31.9375 52.324219 C 32.375 52.777344 32.972656 53.074219 33.917969 53.164062 C 34.265625 53.199219 34.613281 53.164062 34.9375 53.054688 C 35.140625 52.992188 35.339844 52.894531 35.542969 52.765625 L 33.792969 48.894531 C 33.636719 48.554688 33.792969 48.152344 34.136719 48.003906 C 34.480469 47.847656 34.886719 48.003906 35.035156 48.347656 L 36.933594 52.554688 C 37.714844 53.023438 38.445312 53.199219 39.113281 53.105469 C 39.726562 53.015625 40.320312 52.699219 40.898438 52.148438 L 38.09375 47.023438 C 37.917969 46.699219 38.035156 46.285156 38.367188 46.105469 C 38.691406 45.929688 39.109375 46.046875 39.289062 46.375 L 42.246094 51.773438 C 42.8125 52.050781 43.363281 52.140625 43.902344 52.03125 C 44.417969 51.929688 44.953125 51.636719 45.492188 51.152344 L 42.882812 45.328125 C 42.726562 44.984375 42.882812 44.574219 43.226562 44.425781 C 43.570312 44.269531 43.980469 44.425781 44.132812 44.777344 L 46.839844 50.800781 C 47.230469 51.058594 47.691406 51.152344 48.140625 51.113281 C 48.535156 51.074219 48.925781 50.929688 49.253906 50.710938 C 49.566406 50.496094 49.824219 50.203125 49.957031 49.867188 C 50.105469 49.5 50.125 49.058594 49.957031 48.566406 Z M 53.15625 48.46875 L 51.339844 48.347656 C 51.535156 49.078125 51.476562 49.75 51.242188 50.339844 C 51.003906 50.945312 50.574219 51.441406 50.046875 51.804688 C 49.53125 52.15625 48.921875 52.382812 48.28125 52.441406 C 47.664062 52.5 47.035156 52.402344 46.453125 52.117188 C 45.71875 52.785156 44.957031 53.183594 44.191406 53.347656 C 43.417969 53.503906 42.648438 53.40625 41.886719 53.082031 C 41.09375 53.84375 40.242188 54.304688 39.324219 54.433594 C 38.394531 54.570312 37.429688 54.363281 36.429688 53.8125 C 36.089844 54.039062 35.738281 54.214844 35.375 54.339844 C 34.859375 54.511719 34.332031 54.570312 33.785156 54.511719 C 32.476562 54.382812 31.625 53.941406 30.96875 53.269531 C 30.335938 52.628906 29.941406 51.835938 29.492188 50.917969 L 26.941406 45.691406 L 24.695312 45.535156 C 24.519531 46.175781 24.253906 46.304688 23.890625 46.71875 C 23.070312 47.632812 22.359375 48.113281 21.097656 48.042969 C 19.261719 47.9375 16.007812 48.175781 14.957031 46.792969 C 14.421875 46.085938 14.101562 44.984375 14.042969 43.382812 C 14.042969 43.363281 14.042969 43.34375 14.039062 43.324219 L 13.886719 30.769531 C 13.777344 29.410156 14.070312 28.472656 14.65625 27.863281 C 15.25 27.242188 16.101562 27 17.117188 27.027344 C 17.148438 27.027344 17.175781 27.027344 17.199219 27.027344 L 22.378906 27.382812 L 22.378906 27.390625 C 23.355469 27.441406 24.1875 27.667969 24.800781 28.121094 C 25.292969 28.484375 25.625 28.976562 25.777344 29.625 L 30 29.910156 C 31.113281 29.269531 32.140625 28.78125 33.257812 28.511719 C 34.359375 28.25 35.523438 28.210938 36.890625 28.472656 L 38.433594 26.890625 C 38.457031 26.859375 38.484375 26.832031 38.523438 26.804688 C 38.953125 26.449219 39.425781 26.171875 39.929688 25.949219 C 40.457031 25.71875 41.015625 25.554688 41.59375 25.445312 C 42.511719 25.277344 43.46875 25.25 44.390625 25.328125 C 45.441406 25.421875 46.449219 25.648438 47.3125 25.933594 C 48.964844 26.488281 50.351562 27.601562 51.691406 28.683594 C 51.992188 28.925781 52.292969 29.171875 52.648438 29.4375 C 52.660156 29.441406 52.675781 29.457031 52.6875 29.460938 L 54.640625 30.964844 C 54.75 30.828125 54.882812 30.707031 55.023438 30.597656 C 55.648438 30.109375 56.5 29.910156 57.582031 29.980469 L 57.582031 29.972656 L 62.351562 30.296875 C 62.371094 30.296875 62.390625 30.296875 62.402344 30.304688 C 63.625 30.382812 64.601562 30.671875 65.253906 31.25 C 65.976562 31.890625 66.273438 32.8125 66.035156 34.082031 C 66.035156 34.09375 66.027344 34.101562 66.027344 34.113281 L 63.828125 47.277344 C 63.652344 48.457031 63.269531 49.363281 62.664062 49.964844 C 62.019531 50.613281 61.167969 50.890625 60.078125 50.769531 L 55.84375 50.476562 L 55.835938 50.476562 C 55.101562 50.464844 54.492188 50.222656 53.996094 49.769531 C 53.65625 49.445312 53.371094 49.007812 53.15625 48.46875 Z M 19.101562 40.972656 C 19.609375 41.007812 19.992188 41.445312 19.960938 41.957031 C 19.925781 42.464844 19.484375 42.851562 18.96875 42.8125 C 18.460938 42.78125 18.078125 42.339844 18.113281 41.835938 C 18.144531 41.328125 18.585938 40.933594 19.101562 40.972656 Z M 59.261719 43.707031 C 59.765625 43.738281 60.152344 44.179688 60.117188 44.6875 C 60.085938 45.191406 59.644531 45.578125 59.128906 45.539062 C 58.621094 45.507812 58.230469 45.066406 58.269531 44.5625 C 58.304688 44.058594 58.746094 43.675781 59.261719 43.707031 Z M 24.027344 37.378906 L 24.496094 30.617188 C 24.519531 30.257812 24.292969 29.8125 24.007812 29.597656 C 23.628906 29.320312 23.042969 29.175781 22.316406 29.136719 L 17.117188 28.789062 C 16.640625 28.757812 15.988281 28.847656 15.644531 29.203125 C 15.328125 29.535156 15.175781 30.136719 15.253906 31.089844 C 15.253906 31.109375 15.253906 31.128906 15.253906 31.148438 L 15.40625 42.902344 L 15.40625 42.921875 C 15.449219 44.226562 15.679688 45.074219 16.042969 45.558594 C 16.367188 45.996094 21.90625 46.882812 22.859375 45.804688 C 23.238281 45.378906 23.460938 44.691406 23.542969 43.785156 L 23.539062 43.785156 L 24.007812 37.367188 Z M 69.613281 15.722656 L 53.851562 18.535156 L 57.121094 13.921875 C 52.140625 8.636719 46.605469 6.738281 39.988281 8.699219 C 47 0.046875 56.324219 0.03125 63.621094 4.710938 L 66.945312 0 Z M 25.507812 59.230469 L 22.242188 63.839844 C 27.222656 69.128906 32.757812 71.027344 39.375 69.0625 C 32.355469 77.710938 23.03125 77.722656 15.738281 73.046875 L 12.40625 77.757812 L 9.742188 62.039062 Z M 8.164062 52.820312 C 8.75 54.027344 8.242188 55.472656 7.03125 56.046875 C 5.820312 56.632812 4.367188 56.125 3.789062 54.921875 C 2.566406 52.394531 1.617188 49.710938 0.980469 46.902344 C 0.355469 44.160156 0.0234375 41.335938 0.0234375 38.453125 C 0.0234375 28.964844 3.523438 20.277344 9.3125 13.609375 C 15.175781 6.855469 23.386719 2.175781 32.6875 0.828125 C 34.015625 0.640625 35.242188 1.5625 35.433594 2.882812 C 35.621094 4.203125 34.695312 5.429688 33.371094 5.617188 C 25.261719 6.789062 18.097656 10.871094 12.976562 16.765625 C 7.941406 22.582031 4.890625 30.15625 4.890625 38.453125 C 4.890625 41.011719 5.175781 43.488281 5.710938 45.84375 C 6.269531 48.273438 7.09375 50.613281 8.164062 52.820312 Z M 8.164062 52.820312 "/>
</g>
</svg>
